HIERARCHY
	ROOT Hips
	{
		OFFSET 0 0 0 
		CHANNELS 6 Xposition Yposition Zposition Zrotation Xrotation Yrotation
		JOINT LHipJoint
		{
			OFFSET 0 0 0 
			CHANNELS 3 Zrotation Xrotation Yrotation
			JOINT LeftUpLeg
			{
				OFFSET 0.0783705 -0.0912565 0.0336595 
				CHANNELS 3 Zrotation Xrotation Yrotation
				JOINT LeftLeg
				{
					OFFSET 0.117854 -0.323802 0 
					CHANNELS 3 Zrotation Xrotation Yrotation
					JOINT LeftFoot
					{
						OFFSET 0.135318 -0.371784 0 
						CHANNELS 3 Zrotation Xrotation Yrotation
						JOINT LeftToeBase
						{
							OFFSET 0.0102135 -0.028061 0.104268 
							CHANNELS 3 Zrotation Xrotation Yrotation
							End Site
							{
								OFFSET 0 -0 0.0542675
							}
						}
					}
				}
			}
		}
		JOINT RHipJoint
		{
			OFFSET 0 0 0 
			CHANNELS 3 Zrotation Xrotation Yrotation
			JOINT RightUpLeg
			{
				OFFSET -0.075711 -0.0912565 0.0336595 
				CHANNELS 3 Zrotation Xrotation Yrotation
				JOINT RightLeg
				{
					OFFSET -0.124412 -0.341819 0 
					CHANNELS 3 Zrotation Xrotation Yrotation
					JOINT RightFoot
					{
						OFFSET -0.135017 -0.370955 0 
						CHANNELS 3 Zrotation Xrotation Yrotation
						JOINT RightToeBase
						{
							OFFSET -0.009875 -0.0271315 0.111076 
							CHANNELS 3 Zrotation Xrotation Yrotation
							End Site
							{
								OFFSET -0 -0 0.0574575
							}
						}
					}
				}
			}
		}
		JOINT LowerBack
		{
			OFFSET 0 0 0 
			CHANNELS 3 Zrotation Xrotation Yrotation
			JOINT Spine
			{
				OFFSET -0.0007835 0.106437 -0.007921 
				CHANNELS 3 Zrotation Xrotation Yrotation
				JOINT Spine1
				{
					OFFSET 0.003049 0.106663 -0.0005215 
					CHANNELS 3 Zrotation Xrotation Yrotation
					JOINT Neck
					{
						OFFSET 0 0 0 
						CHANNELS 3 Zrotation Xrotation Yrotation
						JOINT Neck1
						{
							OFFSET -0.00252 0.089216 0.0066935 
							CHANNELS 3 Zrotation Xrotation Yrotation
							JOINT Head
							{
								OFFSET -9e-005 0.08844 -0.0166515 
								CHANNELS 3 Zrotation Xrotation Yrotation
								End Site
								{
									OFFSET 0.000367 0.0906245 -0.0063595
								}
							}
						}
					}
					JOINT LeftShoulder
					{
						OFFSET 0 0 0 
						CHANNELS 3 Zrotation Xrotation Yrotation
						JOINT LeftArm
						{
							OFFSET 0.1861 0.047094 -0.0271585 
							CHANNELS 3 Zrotation Xrotation Yrotation
							JOINT LeftForeArm
							{
								OFFSET 0.257301 -0 0 
								CHANNELS 3 Zrotation Xrotation Yrotation
								JOINT LeftHand
								{
									OFFSET 0.182226 -0 -0 
									CHANNELS 3 Zrotation Xrotation Yrotation
									JOINT LeftFingerBase
									{
										OFFSET 0 0 0 
										CHANNELS 3 Zrotation Xrotation Yrotation
										JOINT LFingers
										{
											OFFSET 0.028114 -0 0 
											CHANNELS 3 Zrotation Xrotation Yrotation
											End Site
											{
												OFFSET 0.022666 -0 0
											}
										}
									}
									JOINT LThumb
									{
										OFFSET 0 0 0 
										CHANNELS 3 Zrotation Xrotation Yrotation
										End Site
										{
											OFFSET 0.0230125 -0 0.0230125
										}
									}
								}
							}
						}
					}
					JOINT RightShoulder
					{
						OFFSET 0 0 0 
						CHANNELS 3 Zrotation Xrotation Yrotation
						JOINT RightArm
						{
							OFFSET -0.165127 0.0613395 -0.0234705 
							CHANNELS 3 Zrotation Xrotation Yrotation
							JOINT RightForeArm
							{
								OFFSET -0.266957 -0 0 
								CHANNELS 3 Zrotation Xrotation Yrotation
								JOINT RightHand
								{
									OFFSET -0.178239 -0 -0 
									CHANNELS 3 Zrotation Xrotation Yrotation
									JOINT RightFingerBase
									{
										OFFSET 0 0 0 
										CHANNELS 3 Zrotation Xrotation Yrotation
										JOINT RFingers
										{
											OFFSET -0.0428735 -0 0 
											CHANNELS 3 Zrotation Xrotation Yrotation
											End Site
											{
												OFFSET -0.034566 -0 0
											}
										}
									}
									JOINT RThumb
									{
										OFFSET 0 0 0 
										CHANNELS 3 Zrotation Xrotation Yrotation
										End Site
										{
											OFFSET -0.0350935 -0 0.0350935
										}
									}
								}
							}
						}
					}
				}
			}
		}
	}
MOTION
Frames:	10
Frame Time:	0.0166667
0.46002 0.736805 1.81238 -5.01535 15.3445 42.0937 -0 0 -0 -7.1147 -8.14101 -30.4305 -12.764 50.803 26.5078 0.529156 6.24348 -29.0985 -1.66021 -22.0844 -8.49238 -0 0 -0 34.6822 -69.701 31.8298 41.802 67.1651 -59.8115 -0.602894 -14.9529 0.1004 0.095257 5.46401 -1.99517 -3.02354 32.2762 3.97733 0.17605 8.21157 4.40828 0.0725432 -8.38052 2.21607 -1.02429 -11.9664 15.2347 -18.6637 6.33992 22.9247 -3.15969 5.48789 10.3162 -0 0 -0 -83.6431 -2.6482 -0.50604 24.6158 -10.627 -46.1747 -0 3.7843 -0 27.3365 16.0275 28.1065 -7.125 0 0 4.44243 1.35291 61.9045 -0 0 -0 72.9965 -6.6897 12.4771 -31.2482 -19.8098 63.9607 -0 26.4998 -0 -35.2345 4.85386 -6.83121 7.125 0 -0 -8.59045 -1.024 -38.2531 
0.458955 0.737245 1.81264 -6.42933 14.6302 42.9928 -0 0 -0 -5.23437 -8.90387 -30.5772 -12.672 50.6858 26.3888 0.919322 6.99392 -29.2814 -1.19595 -18.9222 -7.16761 -0 0 -0 36.7727 -69.6198 32.5051 41.0847 67 -59.0329 -0.799804 -14.9625 -0.758726 0.0839648 5.13257 -1.87351 -1.58904 32.2962 3.4872 0.529995 8.01649 4.28808 -0.204271 -8.557 2.14246 -1.02541 -12.2395 15.2901 -18.522 6.58126 23.0328 -3.05498 5.58068 10.3339 -0 0 -0 -83.4292 -2.72263 -0.422577 24.6054 -10.6163 -46.1509 -0 3.7358 -0 27.2986 16.3874 28.6633 -7.125 0 0 4.55515 1.44273 62.5376 -0 0 -0 72.9085 -6.25533 12.4689 -31.2192 -19.7542 63.8634 -0 26.2658 -0 -35.4793 4.71931 -6.58462 7.125 0 -0 -8.80224 -1.09369 -37.9728 
0.458515 0.73861 1.81301 -6.38362 14.8149 43.0361 -0 0 -0 -5.34629 -8.9809 -30.4499 -12.5605 50.5428 26.2446 0.967142 7.05963 -29.0858 -1.05596 -17.8318 -6.72369 -0 0 -0 37.0355 -69.5773 33.053 40.6783 66.9037 -58.5911 -0.861435 -14.7329 -1.13482 0.0314333 3.14137 -1.14462 -1.70872 32.1197 3.53572 0.294998 8.0787 4.29005 -0.399784 -8.39159 2.1473 -1.13248 -11.7419 15.0109 -17.7531 5.6715 22.3527 -3.03371 5.11096 10.1576 -0 0 -0 -82.8001 -2.14264 -0.425097 24.6145 -10.6256 -46.1717 -0 3.2254 -0 27.3758 16.9261 29.3466 -7.125 0 0 4.83284 1.60687 63.3482 -0 0 -0 73.3063 -6.30482 12.6159 -31.2043 -19.7257 63.8133 -0 26.393 -0 -35.3719 4.63863 -6.49878 7.125 0 -0 -8.68951 -1.09695 -37.8603 
0.458275 0.738135 1.81333 -6.10998 15.134 43.0802 -0 0 -0 -5.78821 -8.99305 -30.5161 -12.4827 50.4423 26.1438 1.10224 7.27011 -28.7023 -1.18026 -18.8039 -7.11918 -0 0 -0 36.6175 -69.5928 33.2093 41.0099 66.9825 -58.9516 -0.865992 -14.9497 -1.05812 0.0863855 5.20575 -1.90034 -2.26507 32.1596 3.68572 0.121468 8.05527 4.27991 -0.323818 -8.45654 2.14837 -0.445727 -12.0224 15.0682 -18.4798 6.17122 22.5425 -3.2383 5.46587 10.1595 -0 0 -0 -82.5606 -1.48198 -0.321508 24.6789 -10.6918 -46.3185 -0 2.6942 -0 27.8989 17.8476 30.0656 -7.125 0 0 5.61527 1.97671 64.3321 -0 0 -0 73.4119 -6.24685 12.5132 -31.2012 -19.7196 63.8025 -0 26.6415 -0 -35.2341 4.68031 -6.58977 7.125 0 -0 -8.56534 -1.06573 -37.9601 
0.458285 0.738595 1.81376 -6.02531 15.0167 43.1486 -0 0 -0 -5.68957 -8.67976 -30.4637 -12.3177 50.2265 25.9293 1.1427 7.33572 -28.5999 -1.16629 -18.6977 -7.07569 -0 0 -0 36.1227 -69.4274 32.6356 41.0864 67.0005 -59.0347 -0.869566 -15.0909 -1.01149 0.0884802 5.26715 -1.92282 -2.09075 32.6918 3.61922 -0.038507 7.64428 4.21815 -0.590318 -8.36804 2.1215 -0.928894 -11.9494 15.0113 -17.7844 5.88207 22.3728 -3.02687 5.22582 10.136 -0 0 -0 -82.4337 -1.71089 -0.237506 24.5992 -10.6101 -46.137 -0 3.842 -0 27.7469 17.5042 29.759 -7.125 0 0 5.35799 1.84347 63.9318 -0 0 -0 73.4607 -6.02696 12.5852 -31.1476 -19.6173 63.623 -0 26.3307 -0 -35.3714 4.79052 -6.70934 7.125 0 -0 -8.7106 -1.05984 -38.116 
0.458175 0.739 1.81414 -5.70415 15.2745 43.1308 -0 0 -0 -6.1727 -8.52927 -30.5947 -12.1966 50.0666 25.7717 1.16878 7.36848 -28.4308 -1.26345 -19.4216 -7.37298 -0 0 -0 35.5128 -69.5439 32.4534 41.1518 67.0158 -59.1058 -0.825349 -15.1069 -0.810512 0.199083 7.88369 -2.88893 -3.00293 32.7103 3.91585 0.14419 7.7016 4.31177 -0.00931825 -8.37446 2.17268 0.0335724 -11.9261 15.0522 -19.4878 6.12171 22.6054 -3.60574 5.62481 10.1585 -0 0 -0 -83.0149 -1.92448 -0.275856 24.5887 -10.5992 -46.1129 -0 4.2886 -0 27.3798 17.7109 30.4298 -7.125 0 0 5.15512 1.84122 64.6031 -0 0 -0 72.9811 -6.01659 12.5818 -31.137 -19.5975 63.5881 -0 26.0167 -0 -35.4033 4.6333 -6.48398 7.125 0 -0 -8.71842 -1.1031 -37.8446 
0.457815 0.73806 1.81427 -5.71429 15.6177 43.1991 -0 0 -0 -6.39054 -8.83452 -30.7813 -12.2879 50.1875 25.8907 1.10375 7.27204 -28.6935 -1.2983 -19.674 -7.47728 -0 0 -0 35.5394 -69.8871 32.7556 41.7737 67.1587 -59.7808 -0.825528 -15.4168 -0.681316 0.12058 6.14441 -2.24561 -3.07013 32.1807 3.89536 -0.102807 8.15095 4.26719 -0.168197 -8.38665 2.15394 -0.0365011 -12.0909 15.0045 -19.1786 6.07549 22.499 -3.50734 5.58163 10.1157 -0 0 -0 -83.6653 -4.32394 -1.14717 24.2776 -10.2851 -45.41 -0 6.1542 -0 27.7107 16.3965 28.2547 -7.125 0 0 4.88869 1.51517 62.1783 -0 0 -0 73.2862 -6.00947 12.7026 -31.1381 -19.5993 63.5914 -0 26.3474 -0 -35.2366 4.74355 -6.67727 7.125 0 -0 -8.5766 -1.05088 -38.0665 
0.45761 0.737035 1.81472 -5.74417 15.6272 43.2364 -0 0 -0 -6.41002 -9.07423 -30.8583 -12.3845 50.3143 26.0164 1.07993 7.26342 -29.0381 -1.34723 -20.0213 -7.62149 -0 0 -0 35.3921 -70.1336 32.4091 42.2007 67.2542 -60.244 -0.817816 -15.4854 -0.619904 0.0499539 3.96055 -1.44395 -3.45658 32.5431 4.06309 0.0477089 7.65674 4.34037 0.0906221 -8.37526 2.19057 -1.13528 -12.2147 15.0469 -17.8439 6.2627 22.5477 -2.93418 5.36644 10.1648 -0 0 -0 -84.0789 -4.60588 -0.941641 24.2892 -10.2966 -45.436 -0 5.997 -0 28.0758 16.5404 28.0899 -7.125 0 0 5.23849 1.61506 62.0881 -0 0 -0 72.9479 -5.89149 12.6422 -31.115 -19.5557 63.5148 -0 26.4025 -0 -35.3675 4.76189 -6.67063 7.125 0 -0 -8.70292 -1.06628 -38.0687 
0.456825 0.741755 1.81657 -5.68325 15.5036 43.1672 -0 0 -0 -6.1134 -8.4763 -30.6587 -11.8574 49.6087 25.3278 1.24464 7.56442 -29.004 -1.39912 -20.3816 -7.77168 -0 0 -0 34.9963 -69.1848 31.8946 40.9454 66.9673 -58.8815 -0.882231 -15.6115 -0.84134 0.0720906 4.75723 -1.73568 -3.53811 32.758 4.17891 0.0463086 7.69051 4.45152 0.0715979 -8.42394 2.24261 -0.307253 -12.3998 14.9644 -18.8078 6.42619 22.5066 -3.29748 5.65007 10.0821 -0 0 -0 -84.0046 -4.01111 -0.684777 24.3659 -10.3734 -45.6085 -0 5.8911 -0 27.3481 17.5229 30.2057 -7.125 0 0 5.05356 1.77802 64.3345 -0 0 -0 72.8891 -5.86113 12.5989 -31.1502 -19.6226 63.6324 -0 26.401 -0 -35.0667 4.7213 -6.6879 7.125 0 -0 -8.41305 -1.03064 -38.0661 
0.456425 0.741555 1.81793 -5.57757 15.7964 43.0396 -0 0 -0 -6.17839 -8.31643 -30.4921 -11.3423 48.8873 24.6478 1.4549 7.94014 -28.8596 -1.48595 -20.9675 -8.01765 -0 0 -0 35.1669 -69.3676 32.1899 40.3654 66.8282 -58.2508 -0.837089 -15.2243 -0.811792 0.110616 5.88848 -2.15136 -4.00038 32.6631 4.36253 -0.0655626 7.68442 4.51947 0.14224 -8.40944 2.27881 -0.913176 -11.4417 14.8671 -18.4119 5.14661 22.1265 -3.36025 5.01751 10.0891 -0 0 -0 -83.9437 -4.34555 -0.617876 24.3095 -10.3169 -45.4815 -0 6.1173 -0 27.8731 16.9944 28.9271 -7.125 0 0 5.25434 1.71263 63.0034 -0 0 -0 72.9413 -5.70281 12.5567 -31.1802 -19.6795 63.7322 -0 26.2477 -0 -35.1768 4.68244 -6.60655 7.125 0 -0 -8.51152 -1.05651 -37.9761 
